PathFileType	4	(X/Y/Z)	7_coords_data.trc
DataRate	CameraRate	NumFrames	NumMarkers	Units	OrigDataRate	OrigDataStartFrame	OrigNumFrames
30.0	30.0	6	21	m	30.0	19	47
Frame#	Time	THUMB_TIP	THUMB_IP	THUMB_MCP	THUMB_CMC	INDEX_TIP	INDEX_DIP	INDEX_PIP	INDEX_MCP	MIDDLE_TIP	MIDDLE_DIP	MIDDLE_PIP	MIDDLE_MCP	RING_TIP	RING_DIP	RING_PIP	RING_MCP	PINKY_TIP	PINKY_DIP	PINKY_PIP	PINKY_MCP	WRIST
X1	Y1	Z1	X2	Y2	Z2	X3	Y3	Z3	X4	Y4	Z4	X5	Y5	Z5	X6	Y6	Z6	X7	Y7	Z7	X8	Y8	Z8	X9	Y9	Z9	X10	Y10	Z10	X11	Y11	Z11	X12	Y12	Z12	X13	Y13	Z13	X14	Y14	Z14	X15	Y15	Z15	X16	Y16	Z16	X17	Y17	Z17	X18	Y18	Z18	X19	Y19	Z19	X20	Y20	Z20	X21	Y21	Z21
18	0.6	-0.001283370018005371	0.004889140129089356	0.963468994140625	-0.00500402021408081	-0.012044699668884277	0.98047802734375	-0.017510799407958983	-0.010832200050354004	1.0057100219726562	-0.022894699096679686	0.014436400413513184	1.021280029296875	-0.034270599365234376	-0.01246150016784668	0.9929169921875	-0.02148990058898926	-0.013776599884033203	0.9782960205078125	-0.02683799934387207	-0.01491129970550537	0.957343017578125	-0.05939459991455078	-0.009819849967956543	0.9750590209960938	-0.018479900360107424	0.004063720226287842	0.9921190185546875	-0.015319999694824218	0.0061352400779724125	0.98677197265625	-0.017310699462890624	0.0081243896484375	0.9600759887695313	-0.05790299987792969	0.012477000236511231	0.967791015625	-0.018863100051879883	0.019996599197387697	0.9984730224609375	-0.014683199882507323	0.023043500900268556	0.9964650268554688	-0.011399100303649903	0.027377000808715822	0.9728770141601563	-0.04992430114746094	0.03267839813232422	0.9698369750976562	-0.022934999465942383	0.04021170043945312	1.0081500244140624	-0.011930899620056152	0.03887889862060547	1.0027100219726564	-0.010198399543762207	0.043172500610351563	0.985125	-0.037726200103759766	0.04991400146484375	0.9778489990234375	-0.04748199844360351	0.03570539855957031	1.0374300537109375
19	0.6333333333333333	-0.000640995025634765	0.004985660076141357	0.9633319702148437	-0.0044732999801635745	-0.01152400016784668	0.9801519775390625	-0.017053300857543946	-0.010830900192260743	1.0054299926757813	-0.022501100540161134	0.014439499855041504	1.021010009765625	-0.033951499938964846	-0.012357199668884277	0.9923289794921875	-0.020928600311279296	-0.013702799797058105	0.9782230224609375	-0.02615480041503906	-0.014771699905395508	0.957094970703125	-0.05880400085449219	-0.009692950248718262	0.9746079711914063	-0.01799780082702637	0.004196889877319336	0.9919320068359375	-0.014826999664306641	0.0062565598487854006	0.9865640258789062	-0.01662969970703125	0.008337169647216798	0.9599140014648437	-0.05727730178833008	0.012664600372314453	0.9674329833984375	-0.018830699920654295	0.02021470069885254	0.9987039794921875	-0.014269000053405761	0.023142099380493164	0.9963070068359375	-0.01078909969329834	0.02741320037841797	0.9728880004882813	-0.049293899536132814	0.032815799713134766	0.9695670166015625	-0.022770599365234376	0.04029019927978516	1.00847998046875	-0.011618599891662598	0.03895380020141601	1.0026500244140626	-0.009646300315856934	0.04322880172729492	0.98502099609375	-0.03713529968261719	0.04998630142211914	0.9777249755859375	-0.04714569854736328	0.03573920059204101	1.0371700439453124
20	0.6666666666666666	-4.8762898892164e-05	0.005401919841766358	0.9631010131835938	-0.003872709989547729	-0.011339699745178223	0.9797650146484375	-0.016503700256347655	-0.010585599899291993	1.005010009765625	-0.021950599670410156	0.014750800132751464	1.0206400146484376	-0.03325360107421875	-0.012215299606323242	0.9916339721679688	-0.02040719985961914	-0.013330900192260742	0.9778619995117187	-0.02553569984436035	-0.01433080005645752	0.9567069702148437	-0.05823210144042969	-0.00925691032409668	0.9741939697265625	-0.01741830062866211	0.004459310054779053	0.9916400146484375	-0.014273900032043457	0.006452149868011474	0.9862379760742187	-0.015964699745178224	0.008697919845581055	0.9595590209960938	-0.056607898712158204	0.013015700340270995	0.9669550170898438	-0.018478700637817383	0.020414400100708007	0.99868701171875	-0.01365489959716797	0.02343390083312988	0.9961339721679687	-0.01013640022277832	0.02776409912109375	0.9726489868164062	-0.048574600219726566	0.0331598014831543	0.9691749877929687	-0.02219930076599121	0.040855201721191406	1.0074500122070313	-0.011137399673461914	0.039271499633789064	1.002489990234375	-0.008947239875793458	0.04350479888916016	0.9849619750976563	-0.03635499954223633	0.050326900482177736	0.9774390258789063	-0.046633899688720705	0.036052200317382814	1.0367900390625
21	0.7	0.000781472980976104	0.005914519786834717	0.9628460083007813	-0.0030424799919128416	-0.011196100234985351	0.9795679931640625	-0.015824999809265137	-0.010132599830627441	1.0045599975585937	-0.021347499847412108	0.015207200050354005	1.0202100219726562	-0.0326072998046875	-0.011774399757385253	0.9913599853515624	-0.019595399856567382	-0.012986300468444824	0.9773469848632812	-0.024619199752807616	-0.013785900115966797	0.9562420043945312	-0.05750799942016602	-0.008785340309143066	0.9737449951171875	-0.016608200073242187	0.004846310138702393	0.9912969970703125	-0.013468199729919434	0.006931759834289551	0.9859660034179687	-0.015030500411987304	0.009275779724121094	0.959416015625	-0.055819198608398436	0.01346500015258789	0.966468994140625	-0.017144899368286132	0.020673900604248046	0.997489990234375	-0.012928899765014648	0.02389590072631836	0.995947021484375	-0.009303770065307616	0.028264299392700195	0.9725609741210938	-0.047722900390625	0.033580699920654294	0.9687440185546875	-0.021540300369262695	0.04136949920654297	1.0069299926757813	-0.010424500465393066	0.03977429962158203	1.0023699951171876	-0.008136320114135741	0.0439359016418457	0.9850029907226563	-0.03553189849853516	0.05072940063476562	0.9770440063476562	-0.046151901245117186	0.03645980072021485	1.0362900390625
22	0.7333333333333333	0.001710620045661926	0.006373660087585449	0.9626500244140626	-0.002238529920578003	-0.010531000137329102	0.9791680297851563	-0.015133999824523925	-0.00971317958831787	1.0042999877929688	-0.020732700347900392	0.01568939971923828	1.019760009765625	-0.031772800445556644	-0.011322999954223633	0.9911710205078125	-0.018671899795532226	-0.012496399879455566	0.9769669799804688	-0.02371190071105957	-0.013300600051879883	0.955791015625	-0.05656039810180664	-0.008365469932556152	0.9732769775390625	-0.01589400005340576	0.005307789802551269	0.9908829956054688	-0.012664799690246581	0.007331850051879883	0.9855689697265625	-0.013996999740600586	0.009722970008850097	0.9590269775390625	-0.05478689956665039	0.013845600128173829	0.9657670288085938	-0.016920299530029298	0.021410900115966795	0.9979439697265625	-0.012003700256347656	0.024282800674438478	0.99552197265625	-0.008326760292053223	0.028668399810791015	0.9722069702148437	-0.046772598266601566	0.03398880004882812	0.9682169799804687	-0.020783300399780272	0.041723300933837894	1.00697998046875	-0.009734310150146485	0.04022620010375977	1.001989990234375	-0.007292089939117431	0.0444025993347168	0.984677978515625	-0.034628101348876957	0.05115039825439453	0.9765419921875	-0.04555759811401367	0.03691910171508789	1.0356700439453126
23	0.7666666666666667	0.002419090032577514	0.0069787797927856445	0.9620180053710937	-0.0016190500259399409	-0.010095700263977051	0.9787349853515624	-0.014608200073242188	-0.009230569839477539	1.00375	-0.020278400421142578	0.016140499114990235	1.019219970703125	-0.03097520065307617	-0.010772100448608398	0.9901799926757813	-0.01803779983520508	-0.01192609977722168	0.97639599609375	-0.022892200469970703	-0.012663800239562989	0.9551539916992188	-0.055981201171875	-0.007897759914398193	0.972468994140625	-0.015261699676513672	0.005949930191040039	0.9905009765625	-0.012115400314331054	0.007910069942474365	0.9851389770507812	-0.013326199531555175	0.010269000053405761	0.9584920043945313	-0.054076099395751955	0.014378299713134765	0.9650490112304687	-0.016546499252319335	0.021993499755859375	0.9974010009765625	-0.011566800117492676	0.02489430046081543	0.994906982421875	-0.007716010093688965	0.029274099349975585	0.9718189697265625	-0.04604399871826172	0.034572799682617186	0.9675189819335938	-0.02060219955444336	0.04226589965820313	1.0065900268554688	-0.009422599792480469	0.04074160003662109	1.0014400024414063	-0.006751999855041504	0.04491379928588867	0.9841240234375	-0.034037899017333985	0.05176449966430664	0.975927001953125	-0.04506449890136719	0.03733980178833008	1.035
